<svg width="328" height="98" viewBox="0 0 328 98" fill="none" xmlns="http://www.w3.org/2000/svg">
<path d="M117.36 68.7H120.5C121.26 68.7 121.84 68.86 122.24 69.18C122.72 69.5667 122.96 70.0867 122.96 70.74C122.96 71.46 122.66 72.0133 122.06 72.4C122.473 72.5067 122.82 72.6933 123.1 72.96C123.54 73.3867 123.76 73.92 123.76 74.56C123.76 75.36 123.473 75.9867 122.9 76.44C122.407 76.8133 121.753 77 120.94 77H117.36V68.7ZM118.8 72.08H120.32C120.707 72.08 121.013 72 121.24 71.84C121.507 71.64 121.64 71.3533 121.64 70.98C121.64 70.6467 121.507 70.38 121.24 70.18C121.04 70.0467 120.653 69.98 120.08 69.98H118.8V72.08ZM118.8 75.72H120.58C121.193 75.72 121.627 75.6267 121.88 75.44C122.2 75.2 122.36 74.8933 122.36 74.52C122.36 74.12 122.22 73.8067 121.94 73.58C121.687 73.38 121.253 73.28 120.64 73.28H118.8V75.72ZM132.114 74.22L133.314 74.88C133.034 75.4133 132.694 75.86 132.294 76.22C131.534 76.9 130.614 77.24 129.534 77.24C128.414 77.24 127.447 76.88 126.634 76.16C125.834 75.4267 125.434 74.34 125.434 72.9C125.434 71.6333 125.794 70.5867 126.514 69.76C127.247 68.92 128.227 68.5 129.454 68.5C130.84 68.5 131.887 69.0067 132.594 70.02C133.154 70.82 133.414 71.86 133.374 73.14H126.914C126.927 73.98 127.187 74.66 127.694 75.18C128.2 75.7 128.82 75.96 129.554 75.96C130.207 75.96 130.774 75.76 131.254 75.36C131.627 75.04 131.914 74.66 132.114 74.22ZM127.014 71.94H131.894C131.774 71.2867 131.487 70.7667 131.034 70.38C130.594 69.98 130.067 69.78 129.454 69.78C128.854 69.78 128.32 69.9867 127.854 70.4C127.4 70.8 127.12 71.3133 127.014 71.94ZM141.023 70.02H138.423V77H136.983V70.02H134.383V68.7H141.023V70.02ZM148.5 74.22L149.7 74.88C149.42 75.4133 149.08 75.86 148.68 76.22C147.92 76.9 147 77.24 145.92 77.24C144.8 77.24 143.834 76.88 143.02 76.16C142.22 75.4267 141.82 74.34 141.82 72.9C141.82 71.6333 142.18 70.5867 142.9 69.76C143.634 68.92 144.614 68.5 145.84 68.5C147.227 68.5 148.274 69.0067 148.98 70.02C149.54 70.82 149.8 71.86 149.76 73.14H143.3C143.314 73.98 143.574 74.66 144.08 75.18C144.587 75.7 145.207 75.96 145.94 75.96C146.594 75.96 147.16 75.76 147.64 75.36C148.014 75.04 148.3 74.66 148.5 74.22ZM143.4 71.94H148.28C148.16 71.2867 147.874 70.7667 147.42 70.38C146.98 69.98 146.454 69.78 145.84 69.78C145.24 69.78 144.707 69.9867 144.24 70.4C143.787 70.8 143.507 71.3133 143.4 71.94ZM153.409 75.84V81.6H151.969V68.7H153.409V69.86C154.143 68.9533 155.089 68.5 156.249 68.5C157.489 68.5 158.469 68.94 159.189 69.82C159.923 70.6867 160.289 71.7133 160.289 72.9C160.289 74.1 159.929 75.1267 159.209 75.98C158.489 76.82 157.523 77.24 156.309 77.24C155.096 77.24 154.129 76.7733 153.409 75.84ZM156.109 75.96C156.923 75.96 157.576 75.6667 158.069 75.08C158.563 74.48 158.809 73.7533 158.809 72.9C158.809 71.94 158.536 71.18 157.989 70.62C157.443 70.06 156.809 69.78 156.089 69.78C155.369 69.78 154.729 70.06 154.169 70.62C153.609 71.18 153.329 71.9333 153.329 72.88C153.329 73.7467 153.583 74.48 154.089 75.08C154.609 75.6667 155.283 75.96 156.109 75.96ZM162.497 68.7H163.937V74.18L169.617 68.06V77H168.177V71.46L162.497 77.58V68.7ZM172.34 77V68.7H173.78V72.1H177.7V68.7H179.14V77H177.7V73.42H173.78V77H172.34ZM188.212 69.88V68.7H189.652V77H188.212V75.84C187.492 76.7733 186.546 77.24 185.372 77.24C184.252 77.24 183.299 76.8533 182.512 76.08C181.726 75.3067 181.332 74.2267 181.332 72.84C181.332 71.48 181.719 70.42 182.492 69.66C183.279 68.8867 184.239 68.5 185.372 68.5C186.572 68.5 187.519 68.96 188.212 69.88ZM185.532 69.78C184.772 69.78 184.126 70.0533 183.592 70.6C183.072 71.1333 182.812 71.88 182.812 72.84C182.812 73.76 183.052 74.5133 183.532 75.1C184.026 75.6733 184.692 75.96 185.532 75.96C186.372 75.96 187.039 75.66 187.532 75.06C188.039 74.46 188.292 73.7267 188.292 72.86C188.292 71.8733 188.012 71.1133 187.452 70.58C186.892 70.0467 186.252 69.78 185.532 69.78ZM193.82 75.84V81.6H192.38V68.7H193.82V69.86C194.553 68.9533 195.5 68.5 196.66 68.5C197.9 68.5 198.88 68.94 199.6 69.82C200.333 70.6867 200.7 71.7133 200.7 72.9C200.7 74.1 200.34 75.1267 199.62 75.98C198.9 76.82 197.933 77.24 196.72 77.24C195.506 77.24 194.54 76.7733 193.82 75.84ZM196.52 75.96C197.333 75.96 197.986 75.6667 198.48 75.08C198.973 74.48 199.22 73.7533 199.22 72.9C199.22 71.94 198.946 71.18 198.4 70.62C197.853 70.06 197.22 69.78 196.5 69.78C195.78 69.78 195.14 70.06 194.58 70.62C194.02 71.18 193.74 71.9333 193.74 72.88C193.74 73.7467 193.993 74.48 194.5 75.08C195.02 75.6667 195.693 75.96 196.52 75.96ZM202.907 77V68.7H204.347V72.1H208.267V68.7H209.707V77H208.267V73.42H204.347V77H202.907ZM218.779 69.88V68.7H220.219V77H218.779V75.84C218.059 76.7733 217.112 77.24 215.939 77.24C214.819 77.24 213.865 76.8533 213.079 76.08C212.292 75.3067 211.899 74.2267 211.899 72.84C211.899 71.48 212.285 70.42 213.059 69.66C213.845 68.8867 214.805 68.5 215.939 68.5C217.139 68.5 218.085 68.96 218.779 69.88ZM216.099 69.78C215.339 69.78 214.692 70.0533 214.159 70.6C213.639 71.1333 213.379 71.88 213.379 72.84C213.379 73.76 213.619 74.5133 214.099 75.1C214.592 75.6733 215.259 75.96 216.099 75.96C216.939 75.96 217.605 75.66 218.099 75.06C218.605 74.46 218.859 73.7267 218.859 72.86C218.859 71.8733 218.579 71.1133 218.019 70.58C217.459 70.0467 216.819 69.78 216.099 69.78ZM221.986 77L224.566 73.58C224.486 73.58 224.373 73.5667 224.226 73.54C224.093 73.5133 223.893 73.4467 223.626 73.34C223.359 73.2333 223.139 73.0933 222.966 72.92C222.526 72.5067 222.306 71.9533 222.306 71.26C222.306 70.4733 222.553 69.8533 223.046 69.4C223.539 68.9333 224.353 68.7 225.486 68.7H228.386V77H226.946V73.66H226.066L223.706 77H221.986ZM226.946 72.46V69.98H225.606C224.979 69.98 224.546 70.0533 224.306 70.2C223.959 70.4267 223.786 70.7667 223.786 71.22C223.786 71.6733 223.959 72.0067 224.306 72.22C224.559 72.38 224.986 72.46 225.586 72.46H226.946ZM235.778 68.7H237.218V72.1L240.578 68.7H242.338L238.738 72.4L242.778 77H240.898L237.658 73.36L237.218 73.78V77H235.778V68.7ZM250.71 68.7V77H249.27V70.02H246.31V73.76C246.31 74.84 246.097 75.64 245.67 76.16C245.19 76.7467 244.524 77.04 243.67 77.04C243.564 77.04 243.417 77.0267 243.23 77V75.68C243.364 75.7067 243.47 75.72 243.55 75.72C244.017 75.72 244.364 75.54 244.59 75.18C244.777 74.8867 244.87 74.4133 244.87 73.76V68.7H250.71ZM253.434 68.7H254.874V74.18L260.554 68.06V77H259.114V71.46L253.434 77.58V68.7ZM263.278 77V68.7H264.718V72.1H268.638V68.7H270.078V77H268.638V73.42H264.718V77H263.278ZM272.79 68.7H274.23V74.18L279.91 68.06V77H278.47V71.46L272.79 77.58V68.7ZM282.633 68.7H284.073V72.1L287.433 68.7H289.193L285.593 72.4L289.633 77H287.753L284.513 73.36L284.073 73.78V77H282.633V68.7ZM297.431 69.88V68.7H298.871V77H297.431V75.84C296.711 76.7733 295.764 77.24 294.591 77.24C293.471 77.24 292.518 76.8533 291.731 76.08C290.944 75.3067 290.551 74.2267 290.551 72.84C290.551 71.48 290.938 70.42 291.711 69.66C292.498 68.8867 293.458 68.5 294.591 68.5C295.791 68.5 296.738 68.96 297.431 69.88ZM294.751 69.78C293.991 69.78 293.344 70.0533 292.811 70.6C292.291 71.1333 292.031 71.88 292.031 72.84C292.031 73.76 292.271 74.5133 292.751 75.1C293.244 75.6733 293.911 75.96 294.751 75.96C295.591 75.96 296.258 75.66 296.751 75.06C297.258 74.46 297.511 73.7267 297.511 72.86C297.511 71.8733 297.231 71.1133 296.671 70.58C296.111 70.0467 295.471 69.78 294.751 69.78Z" fill="white"/>
<path d="M117.404 45V42.644C119.023 42.644 120.244 42.2249 121.066 41.3867C121.888 40.5404 122.567 39.4295 123.104 38.0542C123.284 37.6799 123.414 37.395 123.495 37.1997C123.707 36.7277 123.874 36.3289 123.996 36.0034L134.604 10.0024H137.655L149.545 37.7979C150.253 39.401 151.059 40.6095 151.962 41.4233C152.873 42.2371 154.005 42.644 155.355 42.644V45H137.655V42.644H140.146C140.683 42.644 141.142 42.5301 141.525 42.3022C141.907 42.0744 142.099 41.7407 142.099 41.3013C142.099 40.9106 141.916 40.2922 141.549 39.4458L139.999 35.9058H126.852L125.9 38.4448C125.631 39.2017 125.497 39.8201 125.497 40.3003C125.497 41.8628 126.681 42.644 129.049 42.644H130.502V45H117.404ZM127.853 33.5498H138.949L133.297 20.4028H133.249L127.853 33.5498ZM158.029 22.1973H170.48V24.5044H169.979C168.848 24.5044 168.283 25.0049 168.283 26.0059V37.395H168.429L175.534 25.7007V25.5542C175.534 24.8543 174.964 24.5044 173.825 24.5044H173.324V22.1973H185.775V24.5044H183.981C182.85 24.5044 182.284 25.0049 182.284 26.0059V41.2036C182.284 42.2046 182.85 42.7051 183.981 42.7051H185.775V45H173.324V42.7051H173.825C174.964 42.7051 175.534 42.2046 175.534 41.2036V30.0952H175.424L168.283 41.0449V41.2036C168.283 42.2046 168.848 42.7051 169.979 42.7051H170.48V45H158.029V42.7051H159.823C160.963 42.7051 161.532 42.2046 161.532 41.2036V26.0059C161.532 25.0049 160.963 24.5044 159.823 24.5044H158.029V22.1973ZM171.884 18.5474C169.849 18.5474 168.047 18.0957 166.476 17.1924C164.914 16.2809 164.132 15.0521 164.132 13.5059C164.132 12.57 164.385 11.8376 164.889 11.3086C165.402 10.7715 166.13 10.5029 167.074 10.5029C167.872 10.5029 168.486 10.743 168.917 11.2231C169.357 11.6951 169.577 12.2689 169.577 12.9443C169.577 13.4245 169.442 13.8761 169.174 14.2993C169.117 14.397 169.015 14.5353 168.869 14.7144C168.722 14.8853 168.604 15.0439 168.515 15.1904C168.425 15.3288 168.38 15.4671 168.38 15.6055C168.38 15.8903 168.625 16.1873 169.113 16.4966C169.601 16.7977 170.525 16.9482 171.884 16.9482C174.211 16.9482 175.375 16.5007 175.375 15.6055C175.375 15.4346 175.334 15.284 175.253 15.1538C175.18 15.0155 175.082 14.8812 174.96 14.751C174.846 14.6126 174.72 14.4621 174.582 14.2993C174.346 13.9738 174.228 13.5221 174.228 12.9443C174.228 11.9596 174.663 11.2272 175.534 10.7471C176.022 10.5843 176.47 10.5029 176.876 10.5029C177.698 10.5029 178.362 10.7715 178.866 11.3086C179.371 11.8457 179.623 12.5781 179.623 13.5059C179.623 14.6126 179.232 15.5485 178.451 16.3135C177.67 17.0703 176.677 17.6318 175.473 17.998C174.268 18.3643 173.072 18.5474 171.884 18.5474ZM210.934 10.3442H212.179C211.927 13.5099 211.04 15.5282 209.518 16.3989C207.996 17.2616 206.186 17.7132 204.086 17.7539C201.449 17.8027 199.362 17.9899 197.824 18.3154C196.294 18.6328 194.988 19.4141 193.905 20.6592C192.823 21.9043 192.147 23.8167 191.879 26.3965H192.184C192.453 26.0303 192.668 25.7129 192.831 25.4443C193.71 24.1667 194.849 23.1657 196.249 22.4414C197.657 21.7171 199.203 21.355 200.888 21.355C202.914 21.355 204.831 21.8311 206.637 22.7832C208.444 23.7272 209.892 25.1025 210.983 26.9092C212.082 28.7158 212.631 30.8276 212.631 33.2446C212.59 35.6535 212.077 37.8141 211.093 39.7266C210.108 41.639 208.721 43.1405 206.93 44.231C205.148 45.3133 203.101 45.8545 200.79 45.8545C199.073 45.8545 197.335 45.4639 195.578 44.6826C193.828 43.8932 192.322 42.4528 191.061 40.3613C189.808 38.2617 189.181 35.4256 189.181 31.853C189.181 27.3853 189.767 23.8167 190.939 21.1475C192.119 18.4782 193.608 16.5617 195.407 15.3979C197.205 14.2261 198.894 13.5099 200.473 13.2495C202.06 12.9891 204.062 12.806 206.479 12.7002C207.341 12.6595 207.968 12.5985 208.358 12.5171C208.749 12.4276 209.136 12.2282 209.518 11.9189C209.909 11.6097 210.381 11.0848 210.934 10.3442ZM200.985 43.4985C202.296 43.409 203.264 42.9655 203.891 42.168C204.525 41.3704 204.924 40.3857 205.087 39.2139C205.25 38.042 205.331 36.5039 205.331 34.5996V33.4033C205.331 30.6364 205.201 28.6833 204.94 27.5439C204.639 26.2256 204.127 25.2572 203.402 24.6387C202.686 24.012 201.913 23.6987 201.083 23.6987C199.252 23.6987 198.027 24.4556 197.409 25.9692C196.79 27.4748 196.481 29.4198 196.481 31.8042V34.7949C196.481 36.5853 196.579 38.0908 196.774 39.3115C196.969 40.5322 197.396 41.5373 198.056 42.3267C198.723 43.1079 199.7 43.4985 200.985 43.4985ZM216.037 33.5986C216.037 31.3281 216.574 29.257 217.648 27.3853C218.722 25.5054 220.167 24.0324 221.981 22.9663C223.796 21.8921 225.766 21.355 227.89 21.355C229.314 21.355 230.73 21.6235 232.138 22.1606C233.554 22.6978 234.835 23.4912 235.983 24.541C237.13 25.5908 238.042 26.8888 238.717 28.4351C239.401 29.9731 239.743 31.6943 239.743 33.5986C239.743 36.1133 239.161 38.3024 237.997 40.166C236.841 42.0296 235.352 43.4456 233.529 44.4141C231.706 45.3743 229.826 45.8545 227.89 45.8545C226.303 45.8545 224.789 45.5493 223.349 44.939C221.916 44.3205 220.647 43.4538 219.54 42.3389C218.433 41.2158 217.571 39.9056 216.952 38.4082C216.342 36.9027 216.037 35.2995 216.037 33.5986ZM223.336 33.5986C223.336 35.568 223.442 37.2689 223.654 38.7012C223.874 40.1253 224.317 41.2809 224.984 42.168C225.66 43.055 226.628 43.4985 227.89 43.4985C229.81 43.4985 231.047 42.5586 231.601 40.6787C232.162 38.7907 232.443 36.4307 232.443 33.5986C232.443 30.7096 232.15 28.3374 231.564 26.4819C230.978 24.6265 229.753 23.6987 227.89 23.6987C226.636 23.6987 225.672 24.1504 224.997 25.0537C224.321 25.957 223.874 27.1289 223.654 28.5693C223.442 30.0016 223.336 31.6781 223.336 33.5986ZM247.287 22.1973H270.138V24.5044H268.344C267.204 24.5044 266.635 25.0049 266.635 26.0059V41.2036C266.635 42.2046 267.204 42.7051 268.344 42.7051H270.138V45H256.393V42.7051H258.188C259.319 42.7051 259.884 42.2046 259.884 41.2036V27.3486C259.884 26.0791 259.713 25.2694 259.372 24.9194C259.03 24.5695 258.354 24.3945 257.345 24.3945C256.507 24.3945 255.88 24.5247 255.465 24.7852C255.058 25.0456 254.753 25.5868 254.55 26.4087C254.354 27.2225 254.232 28.488 254.184 30.2051C253.988 35.2995 253.691 38.6971 253.292 40.3979C252.454 44.0356 250.688 45.8545 247.995 45.8545C246.709 45.8545 245.655 45.6185 244.833 45.1465C244.019 44.6826 243.433 44.1007 243.075 43.4009C242.717 42.6929 242.538 41.9767 242.538 41.2524C242.538 40.0887 242.868 39.1406 243.527 38.4082C244.186 37.6676 245.008 37.2974 245.993 37.2974C246.741 37.2974 247.417 37.5415 248.019 38.0298C248.629 38.5181 248.935 39.2261 248.935 40.1538C248.935 40.3817 248.869 40.6991 248.739 41.106C248.625 41.4152 248.475 41.6634 248.288 41.8506C248.092 42.2412 247.995 42.526 247.995 42.7051C247.995 42.9004 248.21 42.998 248.642 42.998C249.74 42.998 250.521 42.05 250.985 40.1538C251.335 38.7297 251.571 36.8335 251.693 34.4653C251.824 32.089 251.889 30.1522 251.889 28.6548C251.889 27.312 251.714 26.2866 251.364 25.5786C251.014 24.8625 250.22 24.5044 248.983 24.5044H247.287V22.1973ZM273.117 22.1973H285.568V24.5044H285.067C283.936 24.5044 283.371 25.0049 283.371 26.0059V37.395H283.517L290.622 25.7007V25.5542C290.622 24.8543 290.052 24.5044 288.913 24.5044H288.412V22.1973H300.863V24.5044H299.069C297.938 24.5044 297.372 25.0049 297.372 26.0059V41.2036C297.372 42.2046 297.938 42.7051 299.069 42.7051H300.863V45H288.412V42.7051H288.913C290.052 42.7051 290.622 42.2046 290.622 41.2036V30.0952H290.512L283.371 41.0449V41.2036C283.371 42.2046 283.936 42.7051 285.067 42.7051H285.568V45H273.117V42.7051H274.911C276.05 42.7051 276.62 42.2046 276.62 41.2036V26.0059C276.62 25.0049 276.05 24.5044 274.911 24.5044H273.117V22.1973ZM303.976 22.1973H326.327V31.2549H324.325C324.317 30.1725 324.044 29.1064 323.507 28.0566C322.97 27.0068 322.303 26.1483 321.505 25.481C320.708 24.8055 319.947 24.4637 319.223 24.4556H318.966C318.763 24.4556 318.637 24.48 318.588 24.5288C318.547 24.5776 318.527 24.7363 318.527 25.0049V41.2036C318.527 42.2046 319.092 42.7051 320.224 42.7051H322.018V45H308.273V42.7051H310.067C311.207 42.7051 311.776 42.2046 311.776 41.2036V25.0049C311.776 24.6387 311.642 24.4556 311.374 24.4556H311.068C310.352 24.5044 309.595 24.8584 308.798 25.5176C308 26.1768 307.333 27.0272 306.796 28.0688C306.259 29.1105 305.986 30.1725 305.978 31.2549H303.976V22.1973Z" fill="white"/>
<g filter="url(#filter0_d_2263_1102)">
<path fill-rule="evenodd" clip-rule="evenodd" d="M49 0C24.1472 0 4 20.1472 4 45C4 69.8528 24.1472 90 49 90C73.8528 90 94 69.8528 94 45C94 20.1472 73.8528 0 49 0ZM17.7923 55.034C18.4142 54.8578 18.0405 53.9923 17.0809 54.5228C16.4168 54.89 15.9212 55.5189 16.0104 56.2871C16.3075 58.8468 18.463 58.8502 20.3281 58.8531C20.4685 58.8533 20.6073 58.8535 20.7436 58.8548C20.6981 59.0838 20.682 59.378 20.6648 59.6931C20.636 60.2172 20.6042 60.799 20.4289 61.2339C20.1146 62.0141 19.5748 62.4095 19.3336 62.5862C19.303 62.6086 19.2772 62.6275 19.2573 62.6432C19.1189 62.7523 18.7973 63.7565 18.6212 64.3064C18.572 64.46 18.5341 64.5782 18.5148 64.6315C18.4263 64.8757 18.6647 65.978 18.794 66.1593C18.9235 66.3408 19.5161 66.4106 19.5978 66.3339C19.6659 66.2699 19.6725 66.2592 19.6295 66.1726L19.5978 66.1105C19.5229 65.964 19.4479 65.8036 19.4071 65.5245C19.3662 65.2455 19.6114 64.3106 19.6864 64.1083C19.7305 63.9892 20.1735 63.8362 20.6528 63.6708C20.9877 63.5551 21.3402 63.4334 21.5868 63.3128C21.9073 63.1562 22.2161 62.9517 22.4362 62.806C22.6277 62.6792 22.7521 62.5968 22.7584 62.6293C22.7721 62.699 22.7175 63.8292 22.6766 64.0804C22.6358 64.3314 23.0854 64.75 23.5213 65.1268C23.7217 65.3 23.8329 65.482 23.9263 65.635C24.036 65.8147 24.1212 65.9542 24.2979 65.992C24.6248 66.0616 25.1016 65.992 25.2924 65.95C25.3664 65.9338 25.426 65.9533 25.4776 65.9702C25.5591 65.9968 25.6206 66.0169 25.6873 65.8802C25.7963 65.657 25.6057 65.4757 25.4422 65.364C25.389 65.3277 25.3099 65.287 25.2203 65.2408C25.0344 65.1452 24.8035 65.0263 24.6656 64.8757C24.6409 64.8487 24.614 64.8198 24.5859 64.7897C24.3816 64.5706 24.1137 64.2834 24.1616 64.1362C24.1812 64.076 24.2606 63.9708 24.3594 63.8399C24.5354 63.6067 24.773 63.292 24.8428 63.006C24.9517 62.5595 25.0063 62.2525 25.0063 62.2525C25.0063 62.2525 25.7568 62.3082 26.4107 62.4756C27.0647 62.6431 28.318 62.6291 28.318 62.6291C28.318 62.6291 28.1272 62.9639 27.9911 63.2151C27.9803 63.2349 27.9684 63.2566 27.9556 63.2798C27.8061 63.5507 27.5397 64.0336 27.6777 64.3034C27.8275 64.5965 28.4815 65.7823 28.8356 65.922C29.096 66.0246 29.3196 65.9989 29.501 65.9782C29.5663 65.9707 29.6262 65.9638 29.6803 65.9638C29.8846 65.9638 30.0073 65.908 29.8982 65.7127C29.8075 65.5499 29.6978 65.5034 29.5927 65.4682L29.5304 65.4475C29.5106 65.4408 29.4904 65.4347 29.4701 65.4286C29.3648 65.3971 29.2561 65.3646 29.1762 65.2243C29.0808 65.0568 28.9991 64.6243 28.9991 64.3593C28.9991 64.1766 29.3287 63.8219 29.6318 63.4957C29.7688 63.3483 29.9003 63.2067 29.9936 63.0894C30.2933 62.7128 30.3887 62.4896 30.3887 62.4896C30.3887 62.4896 30.4841 63.2987 30.5931 63.5918C30.7021 63.8848 31.4105 64.4709 31.8601 64.7918C32.1359 64.9886 32.2682 65.2117 32.3606 65.3677C32.4189 65.4659 32.4614 65.5375 32.514 65.5591C32.6502 65.615 33.0863 65.7057 33.2632 65.6499C33.4404 65.5941 33.5834 65.4825 33.42 65.3011C33.3125 65.1818 33.1756 65.0926 33.0576 65.0159C32.9961 64.9759 32.9398 64.9392 32.8955 64.9034C32.766 64.7987 31.9146 63.5709 31.8329 63.0407C31.7512 62.5104 31.7239 62.1896 31.7921 61.8686C31.8601 61.5477 31.9146 61.464 31.9146 61.464L31.9574 61.4217C32.0788 61.302 32.4274 60.9616 32.589 60.836C32.7866 60.6825 33.8356 60.515 34.0603 60.6476C34.106 60.6745 34.1444 60.7009 34.1789 60.7246C34.3144 60.8177 34.391 60.8704 34.619 60.7593C34.8545 60.6443 35.0624 60.4182 35.1665 60.305C35.1888 60.2807 35.2063 60.2617 35.2183 60.25C35.2569 60.2125 35.2703 60.2051 35.2852 60.197C35.2966 60.1907 35.3089 60.184 35.3342 60.1627C35.392 60.1138 35.4023 60.1034 35.3886 60.0442C35.3843 60.0253 35.3454 59.9528 35.2929 59.8551C35.18 59.6448 35.0044 59.3177 34.9765 59.1582C34.9642 59.0878 34.9606 59.0396 34.9576 59.0011C34.9509 58.9117 34.9481 58.875 34.8505 58.7361C34.7674 58.6177 34.5358 58.4177 34.3648 58.2701C34.2486 58.1698 34.1603 58.0936 34.1658 58.0837L34.1679 58.08C34.1898 58.0411 34.3192 57.812 34.3192 57.7313C34.3192 57.6477 33.7912 57.7873 33.7912 57.7873C33.7912 57.7873 33.8797 57.6687 33.8593 57.5012C33.8389 57.3338 33.7981 57.2396 33.7707 57.2361C33.7435 57.2326 33.3723 57.4942 33.2599 57.6268C33.1474 57.7594 33.0998 57.8116 33.0829 57.8151C33.0811 57.8155 33.07 57.8195 33.0507 57.8265C32.8783 57.8892 32.0572 58.1878 31.5363 58.1815C31.0767 58.176 30.3937 58.0693 29.8453 57.9836C29.703 57.9614 29.5699 57.9406 29.452 57.9233C29.2992 57.901 29.0342 57.8433 28.7021 57.771C27.7903 57.5727 26.3728 57.2643 25.3842 57.2746C24.0355 57.2885 22.7258 57.3422 22.5919 57.4011C21.9201 57.5701 19.2108 57.9264 18.2239 57.6665C16.8487 57.3042 16.4173 55.4235 17.7923 55.034ZM71.2473 60.8769L53.9648 19H45.0851L30.1626 55.3689C30.221 55.3296 30.2839 55.2862 30.3568 55.236C30.3921 55.2117 30.4297 55.1858 30.4703 55.1579C30.5884 55.0768 30.8003 54.9391 31.0496 54.7771C31.6784 54.3684 32.5453 53.805 32.7455 53.6051C33.0251 53.3259 33.5721 52.3821 33.7912 51.6304C34.0104 50.8788 34.5718 49.8354 34.7379 49.5586L34.7555 49.5292C34.9187 49.2578 35.1163 48.9289 35.1254 48.7179C35.1313 48.5802 35.2308 48.3715 35.3462 48.1295C35.4142 47.9869 35.4877 47.8327 35.5508 47.6748C35.6353 47.463 35.697 47.1802 35.7475 46.9481C35.7987 46.7132 35.8386 46.5302 35.8795 46.5252C35.961 46.5155 36.1724 46.9756 36.2812 47.2468C36.3899 47.518 36.6511 48.1048 36.695 48.1932C36.7351 48.2743 36.91 48.319 37.0616 48.3579C37.0754 48.3614 37.089 48.3649 37.1024 48.3684C37.1794 48.3884 37.3229 48.4609 37.4799 48.5402C37.6476 48.6249 37.8306 48.7173 37.9646 48.762C38.2242 48.8487 38.288 48.9079 38.4025 49.0214C38.4535 49.0719 38.4961 49.1357 38.5417 49.204C38.5988 49.2895 38.6607 49.3821 38.7497 49.4651C38.9098 49.6144 39.3044 49.6969 39.6301 49.7619C39.8028 49.7963 40.0162 49.8782 40.2225 49.9573C40.4055 50.0275 40.5829 50.0955 40.7211 50.1263C41.015 50.1917 40.981 50.289 40.9226 50.4447C40.8642 50.6006 40.6879 50.8842 40.547 51.046C40.5134 51.0847 40.4843 51.1239 40.4546 51.164C40.3599 51.2917 40.2593 51.4273 39.9882 51.5762C39.6789 51.7462 39.4226 51.7536 39.1843 51.7605C39.1483 51.7615 39.1127 51.7626 39.0774 51.7641C38.9759 51.7687 38.862 51.7863 38.7424 51.8047C38.545 51.8352 38.3322 51.868 38.1349 51.8485C37.9119 51.8265 37.7844 51.8424 37.6516 51.859C37.5957 51.866 37.539 51.8731 37.4737 51.8775C37.3095 51.8887 37.2822 51.9287 37.2457 51.9821C37.2333 52.0003 37.2197 52.0202 37.1993 52.0409C37.119 52.1225 36.9464 52.5575 36.9079 53.1987C36.8956 53.4038 36.8754 53.6461 36.8548 53.8933C36.8111 54.4186 36.7655 54.9657 36.7899 55.2246C36.8135 55.4738 36.9265 55.8172 37.0595 56.2213C37.1299 56.435 37.2058 56.6657 37.2771 56.9084C37.4332 57.44 37.4069 57.8852 37.3865 58.2313C37.38 58.3421 37.374 58.4427 37.3749 58.5328C37.378 58.8771 37.2067 59.3365 37.0733 59.694C37.0628 59.7223 37.0525 59.7499 37.0425 59.7768C37.0213 59.834 36.9481 60.0228 36.8397 60.3023C36.4104 61.4091 35.4291 63.9392 34.9349 65.3661L43.7614 65.3636V63.9345C40.2164 63.8016 38.4437 62.6494 38.4437 60.478C38.4437 59.7246 38.5989 58.9492 38.9091 58.1515L41.302 52.0361H56.8895L60.0802 59.7136C60.2573 60.1345 60.346 60.5888 60.346 61.0763C60.346 62.8488 58.3297 63.8016 54.2971 63.9345V65.3636H76V63.9345H75.734C73.5848 63.9345 72.0893 62.9152 71.2473 60.8769ZM42.3323 49.3773L48.8465 32.5601L55.7928 49.3773H42.3323Z" fill="white"/>
</g>
<defs>
<filter id="filter0_d_2263_1102" x="0" y="0" width="98" height="98" filterUnits="userSpaceOnUse" color-interpolation-filters="sRGB">
<feFlood flood-opacity="0" result="BackgroundImageFix"/>
<feColorMatrix in="SourceAlpha" type="matrix" values="0 0 0 0 0 0 0 0 0 0 0 0 0 0 0 0 0 0 127 0" result="hardAlpha"/>
<feOffset dy="4"/>
<feGaussianBlur stdDeviation="2"/>
<feComposite in2="hardAlpha" operator="out"/>
<feColorMatrix type="matrix" values="0 0 0 0 0 0 0 0 0 0 0 0 0 0 0 0 0 0 0.25 0"/>
<feBlend mode="normal" in2="BackgroundImageFix" result="effect1_dropShadow_2263_1102"/>
<feBlend mode="normal" in="SourceGraphic" in2="effect1_dropShadow_2263_1102" result="shape"/>
</filter>
</defs>
</svg>
